<mxfile host="app.diagrams.net" modified="2023-05-05T19:53:02.152Z" agent="Mozilla/5.0 (Windows NT 10.0; Win64; x64) AppleWebKit/537.36 (KHTML, like Gecko) Chrome/112.0.0.0 Safari/537.36" etag="N14LOzWBJ_4zh_4vOWk5" version="21.2.3" type="device">
  <diagram name="Страница 1" id="Is55MMqv-kkfbts_KbPT">
    <mxGraphModel dx="1077" dy="532" grid="1" gridSize="10" guides="1" tooltips="1" connect="1" arrows="1" fold="1" page="1" pageScale="1" pageWidth="827" pageHeight="1169" math="0" shadow="0">
      <root>
        <mxCell id="0" />
        <mxCell id="1" parent="0" />
        <mxCell id="LA1AgxfcISP6RvlQVwDW-1" value="NewQuestionController" style="swimlane;fontStyle=0;childLayout=stackLayout;horizontal=1;startSize=26;fillColor=none;horizontalStack=0;resizeParent=1;resizeParentMax=0;resizeLast=0;collapsible=1;marginBottom=0;whiteSpace=wrap;html=1;" vertex="1" parent="1">
          <mxGeometry x="40" y="180" width="160" height="52" as="geometry" />
        </mxCell>
        <mxCell id="LA1AgxfcISP6RvlQVwDW-2" value="+ createQuestion():success" style="text;strokeColor=none;fillColor=none;align=left;verticalAlign=top;spacingLeft=4;spacingRight=4;overflow=hidden;rotatable=0;points=[[0,0.5],[1,0.5]];portConstraint=eastwest;whiteSpace=wrap;html=1;" vertex="1" parent="LA1AgxfcISP6RvlQVwDW-1">
          <mxGeometry y="26" width="160" height="26" as="geometry" />
        </mxCell>
        <mxCell id="LA1AgxfcISP6RvlQVwDW-5" value="RepostController" style="swimlane;fontStyle=0;childLayout=stackLayout;horizontal=1;startSize=26;fillColor=none;horizontalStack=0;resizeParent=1;resizeParentMax=0;resizeLast=0;collapsible=1;marginBottom=0;whiteSpace=wrap;html=1;" vertex="1" parent="1">
          <mxGeometry x="40" y="250" width="200" height="104" as="geometry" />
        </mxCell>
        <mxCell id="LA1AgxfcISP6RvlQVwDW-6" value="+ createRepost(): string" style="text;strokeColor=none;fillColor=none;align=left;verticalAlign=top;spacingLeft=4;spacingRight=4;overflow=hidden;rotatable=0;points=[[0,0.5],[1,0.5]];portConstraint=eastwest;whiteSpace=wrap;html=1;" vertex="1" parent="LA1AgxfcISP6RvlQVwDW-5">
          <mxGeometry y="26" width="200" height="26" as="geometry" />
        </mxCell>
        <mxCell id="LA1AgxfcISP6RvlQVwDW-7" value="+ getRepostStatus(int $id): string" style="text;strokeColor=none;fillColor=none;align=left;verticalAlign=top;spacingLeft=4;spacingRight=4;overflow=hidden;rotatable=0;points=[[0,0.5],[1,0.5]];portConstraint=eastwest;whiteSpace=wrap;html=1;" vertex="1" parent="LA1AgxfcISP6RvlQVwDW-5">
          <mxGeometry y="52" width="200" height="26" as="geometry" />
        </mxCell>
        <mxCell id="LA1AgxfcISP6RvlQVwDW-8" value="+ getRepost(int $id): string" style="text;strokeColor=none;fillColor=none;align=left;verticalAlign=top;spacingLeft=4;spacingRight=4;overflow=hidden;rotatable=0;points=[[0,0.5],[1,0.5]];portConstraint=eastwest;whiteSpace=wrap;html=1;" vertex="1" parent="LA1AgxfcISP6RvlQVwDW-5">
          <mxGeometry y="78" width="200" height="26" as="geometry" />
        </mxCell>
        <mxCell id="LA1AgxfcISP6RvlQVwDW-9" value="TelegramBotCommand" style="swimlane;fontStyle=0;childLayout=stackLayout;horizontal=1;startSize=26;fillColor=none;horizontalStack=0;resizeParent=1;resizeParentMax=0;resizeLast=0;collapsible=1;marginBottom=0;whiteSpace=wrap;html=1;" vertex="1" parent="1">
          <mxGeometry x="40" y="20" width="200" height="52" as="geometry" />
        </mxCell>
        <mxCell id="LA1AgxfcISP6RvlQVwDW-10" value="+ handle()" style="text;strokeColor=none;fillColor=none;align=left;verticalAlign=top;spacingLeft=4;spacingRight=4;overflow=hidden;rotatable=0;points=[[0,0.5],[1,0.5]];portConstraint=eastwest;whiteSpace=wrap;html=1;" vertex="1" parent="LA1AgxfcISP6RvlQVwDW-9">
          <mxGeometry y="26" width="200" height="26" as="geometry" />
        </mxCell>
        <mxCell id="LA1AgxfcISP6RvlQVwDW-13" value="TelegramReaderService" style="swimlane;fontStyle=0;childLayout=stackLayout;horizontal=1;startSize=26;fillColor=none;horizontalStack=0;resizeParent=1;resizeParentMax=0;resizeLast=0;collapsible=1;marginBottom=0;whiteSpace=wrap;html=1;" vertex="1" parent="1">
          <mxGeometry x="284" y="20" width="260" height="52" as="geometry" />
        </mxCell>
        <mxCell id="LA1AgxfcISP6RvlQVwDW-14" value="+ handleQuizMessage(MessageDto):void" style="text;strokeColor=none;fillColor=none;align=left;verticalAlign=top;spacingLeft=4;spacingRight=4;overflow=hidden;rotatable=0;points=[[0,0.5],[1,0.5]];portConstraint=eastwest;whiteSpace=wrap;html=1;" vertex="1" parent="LA1AgxfcISP6RvlQVwDW-13">
          <mxGeometry y="26" width="260" height="26" as="geometry" />
        </mxCell>
        <mxCell id="LA1AgxfcISP6RvlQVwDW-57" style="edgeStyle=orthogonalEdgeStyle;rounded=0;orthogonalLoop=1;jettySize=auto;html=1;entryX=0;entryY=0.5;entryDx=0;entryDy=0;" edge="1" parent="1" source="LA1AgxfcISP6RvlQVwDW-19" target="LA1AgxfcISP6RvlQVwDW-10">
          <mxGeometry relative="1" as="geometry">
            <Array as="points">
              <mxPoint x="20" y="140" />
              <mxPoint x="20" y="59" />
            </Array>
          </mxGeometry>
        </mxCell>
        <mxCell id="LA1AgxfcISP6RvlQVwDW-19" value="TelegamResponseService" style="swimlane;fontStyle=0;childLayout=stackLayout;horizontal=1;startSize=26;fillColor=none;horizontalStack=0;resizeParent=1;resizeParentMax=0;resizeLast=0;collapsible=1;marginBottom=0;whiteSpace=wrap;html=1;" vertex="1" parent="1">
          <mxGeometry x="40" y="100" width="170" height="52" as="geometry" />
        </mxCell>
        <mxCell id="LA1AgxfcISP6RvlQVwDW-20" value="+ senMessage()" style="text;strokeColor=none;fillColor=none;align=left;verticalAlign=top;spacingLeft=4;spacingRight=4;overflow=hidden;rotatable=0;points=[[0,0.5],[1,0.5]];portConstraint=eastwest;whiteSpace=wrap;html=1;" vertex="1" parent="LA1AgxfcISP6RvlQVwDW-19">
          <mxGeometry y="26" width="170" height="26" as="geometry" />
        </mxCell>
        <mxCell id="LA1AgxfcISP6RvlQVwDW-25" value="CustomQuizzerService" style="swimlane;fontStyle=0;childLayout=stackLayout;horizontal=1;startSize=26;fillColor=none;horizontalStack=0;resizeParent=1;resizeParentMax=0;resizeLast=0;collapsible=1;marginBottom=0;whiteSpace=wrap;html=1;" vertex="1" parent="1">
          <mxGeometry x="284" y="87" width="310" height="78" as="geometry" />
        </mxCell>
        <mxCell id="LA1AgxfcISP6RvlQVwDW-27" value="+ getRandomQuestion():QuestionDto" style="text;strokeColor=none;fillColor=none;align=left;verticalAlign=top;spacingLeft=4;spacingRight=4;overflow=hidden;rotatable=0;points=[[0,0.5],[1,0.5]];portConstraint=eastwest;whiteSpace=wrap;html=1;" vertex="1" parent="LA1AgxfcISP6RvlQVwDW-25">
          <mxGeometry y="26" width="310" height="26" as="geometry" />
        </mxCell>
        <mxCell id="LA1AgxfcISP6RvlQVwDW-26" value="+ createQuestion(QuestionDto): void" style="text;strokeColor=none;fillColor=none;align=left;verticalAlign=top;spacingLeft=4;spacingRight=4;overflow=hidden;rotatable=0;points=[[0,0.5],[1,0.5]];portConstraint=eastwest;whiteSpace=wrap;html=1;" vertex="1" parent="LA1AgxfcISP6RvlQVwDW-25">
          <mxGeometry y="52" width="310" height="26" as="geometry" />
        </mxCell>
        <mxCell id="LA1AgxfcISP6RvlQVwDW-33" value="RepostService" style="swimlane;fontStyle=0;childLayout=stackLayout;horizontal=1;startSize=26;fillColor=none;horizontalStack=0;resizeParent=1;resizeParentMax=0;resizeLast=0;collapsible=1;marginBottom=0;whiteSpace=wrap;html=1;" vertex="1" parent="1">
          <mxGeometry x="404" y="250" width="190" height="210" as="geometry" />
        </mxCell>
        <mxCell id="LA1AgxfcISP6RvlQVwDW-34" value="+ createRepost(): int" style="text;strokeColor=none;fillColor=none;align=left;verticalAlign=top;spacingLeft=4;spacingRight=4;overflow=hidden;rotatable=0;points=[[0,0.5],[1,0.5]];portConstraint=eastwest;whiteSpace=wrap;html=1;" vertex="1" parent="LA1AgxfcISP6RvlQVwDW-33">
          <mxGeometry y="26" width="190" height="26" as="geometry" />
        </mxCell>
        <mxCell id="LA1AgxfcISP6RvlQVwDW-35" value="+ checkRepostStatus(): string" style="text;strokeColor=none;fillColor=none;align=left;verticalAlign=top;spacingLeft=4;spacingRight=4;overflow=hidden;rotatable=0;points=[[0,0.5],[1,0.5]];portConstraint=eastwest;whiteSpace=wrap;html=1;" vertex="1" parent="LA1AgxfcISP6RvlQVwDW-33">
          <mxGeometry y="52" width="190" height="28" as="geometry" />
        </mxCell>
        <mxCell id="LA1AgxfcISP6RvlQVwDW-64" style="edgeStyle=orthogonalEdgeStyle;rounded=0;orthogonalLoop=1;jettySize=auto;html=1;" edge="1" parent="LA1AgxfcISP6RvlQVwDW-33" source="LA1AgxfcISP6RvlQVwDW-36" target="LA1AgxfcISP6RvlQVwDW-38">
          <mxGeometry relative="1" as="geometry">
            <Array as="points">
              <mxPoint x="216" y="93" />
              <mxPoint x="216" y="120" />
              <mxPoint x="210" y="120" />
              <mxPoint x="210" y="119" />
            </Array>
          </mxGeometry>
        </mxCell>
        <mxCell id="LA1AgxfcISP6RvlQVwDW-36" value="+ getReposUrlCsvt(): string" style="text;strokeColor=none;fillColor=none;align=left;verticalAlign=top;spacingLeft=4;spacingRight=4;overflow=hidden;rotatable=0;points=[[0,0.5],[1,0.5]];portConstraint=eastwest;whiteSpace=wrap;html=1;" vertex="1" parent="LA1AgxfcISP6RvlQVwDW-33">
          <mxGeometry y="80" width="190" height="26" as="geometry" />
        </mxCell>
        <mxCell id="LA1AgxfcISP6RvlQVwDW-65" style="edgeStyle=orthogonalEdgeStyle;rounded=0;orthogonalLoop=1;jettySize=auto;html=1;" edge="1" parent="LA1AgxfcISP6RvlQVwDW-33" source="LA1AgxfcISP6RvlQVwDW-38" target="LA1AgxfcISP6RvlQVwDW-39">
          <mxGeometry relative="1" as="geometry">
            <Array as="points">
              <mxPoint x="-20" y="119" />
              <mxPoint x="-20" y="140" />
              <mxPoint x="-14" y="140" />
              <mxPoint x="-14" y="145" />
            </Array>
          </mxGeometry>
        </mxCell>
        <mxCell id="LA1AgxfcISP6RvlQVwDW-66" style="edgeStyle=orthogonalEdgeStyle;rounded=0;orthogonalLoop=1;jettySize=auto;html=1;entryX=0;entryY=0.5;entryDx=0;entryDy=0;" edge="1" parent="LA1AgxfcISP6RvlQVwDW-33" source="LA1AgxfcISP6RvlQVwDW-38" target="LA1AgxfcISP6RvlQVwDW-41">
          <mxGeometry relative="1" as="geometry" />
        </mxCell>
        <mxCell id="LA1AgxfcISP6RvlQVwDW-38" value="- collectRepost():RepostDto" style="text;strokeColor=none;fillColor=none;align=left;verticalAlign=top;spacingLeft=4;spacingRight=4;overflow=hidden;rotatable=0;points=[[0,0.5],[1,0.5]];portConstraint=eastwest;whiteSpace=wrap;html=1;" vertex="1" parent="LA1AgxfcISP6RvlQVwDW-33">
          <mxGeometry y="106" width="190" height="26" as="geometry" />
        </mxCell>
        <mxCell id="LA1AgxfcISP6RvlQVwDW-39" value="- saveRepost(): void" style="text;strokeColor=none;fillColor=none;align=left;verticalAlign=top;spacingLeft=4;spacingRight=4;overflow=hidden;rotatable=0;points=[[0,0.5],[1,0.5]];portConstraint=eastwest;whiteSpace=wrap;html=1;" vertex="1" parent="LA1AgxfcISP6RvlQVwDW-33">
          <mxGeometry y="132" width="190" height="26" as="geometry" />
        </mxCell>
        <mxCell id="LA1AgxfcISP6RvlQVwDW-68" style="edgeStyle=orthogonalEdgeStyle;rounded=0;orthogonalLoop=1;jettySize=auto;html=1;entryX=1.01;entryY=0.268;entryDx=0;entryDy=0;entryPerimeter=0;" edge="1" parent="LA1AgxfcISP6RvlQVwDW-33" source="LA1AgxfcISP6RvlQVwDW-41" target="LA1AgxfcISP6RvlQVwDW-40">
          <mxGeometry relative="1" as="geometry">
            <Array as="points">
              <mxPoint x="210" y="171" />
              <mxPoint x="210" y="191" />
            </Array>
          </mxGeometry>
        </mxCell>
        <mxCell id="LA1AgxfcISP6RvlQVwDW-41" value="- ganerationCsv(RepostDto):void" style="text;strokeColor=none;fillColor=none;align=left;verticalAlign=top;spacingLeft=4;spacingRight=4;overflow=hidden;rotatable=0;points=[[0,0.5],[1,0.5]];portConstraint=eastwest;whiteSpace=wrap;html=1;" vertex="1" parent="LA1AgxfcISP6RvlQVwDW-33">
          <mxGeometry y="158" width="190" height="26" as="geometry" />
        </mxCell>
        <mxCell id="LA1AgxfcISP6RvlQVwDW-71" style="edgeStyle=orthogonalEdgeStyle;rounded=0;orthogonalLoop=1;jettySize=auto;html=1;entryX=0.999;entryY=0.357;entryDx=0;entryDy=0;entryPerimeter=0;" edge="1" parent="LA1AgxfcISP6RvlQVwDW-33" source="LA1AgxfcISP6RvlQVwDW-40" target="LA1AgxfcISP6RvlQVwDW-36">
          <mxGeometry relative="1" as="geometry">
            <Array as="points">
              <mxPoint x="226" y="197" />
              <mxPoint x="226" y="89" />
            </Array>
          </mxGeometry>
        </mxCell>
        <mxCell id="LA1AgxfcISP6RvlQVwDW-40" value="- ganerationUrlCsv():string" style="text;strokeColor=none;fillColor=none;align=left;verticalAlign=top;spacingLeft=4;spacingRight=4;overflow=hidden;rotatable=0;points=[[0,0.5],[1,0.5]];portConstraint=eastwest;whiteSpace=wrap;html=1;" vertex="1" parent="LA1AgxfcISP6RvlQVwDW-33">
          <mxGeometry y="184" width="190" height="26" as="geometry" />
        </mxCell>
        <mxCell id="LA1AgxfcISP6RvlQVwDW-43" style="edgeStyle=orthogonalEdgeStyle;rounded=0;orthogonalLoop=1;jettySize=auto;html=1;entryX=0;entryY=0.5;entryDx=0;entryDy=0;jumpStyle=arc;" edge="1" parent="1" source="LA1AgxfcISP6RvlQVwDW-2" target="LA1AgxfcISP6RvlQVwDW-26">
          <mxGeometry relative="1" as="geometry" />
        </mxCell>
        <mxCell id="LA1AgxfcISP6RvlQVwDW-45" style="edgeStyle=orthogonalEdgeStyle;rounded=0;orthogonalLoop=1;jettySize=auto;html=1;entryX=0;entryY=0.5;entryDx=0;entryDy=0;" edge="1" parent="1" source="LA1AgxfcISP6RvlQVwDW-10" target="LA1AgxfcISP6RvlQVwDW-14">
          <mxGeometry relative="1" as="geometry" />
        </mxCell>
        <mxCell id="LA1AgxfcISP6RvlQVwDW-58" style="edgeStyle=orthogonalEdgeStyle;rounded=0;orthogonalLoop=1;jettySize=auto;html=1;entryX=1;entryY=0.5;entryDx=0;entryDy=0;" edge="1" parent="1" source="LA1AgxfcISP6RvlQVwDW-14" target="LA1AgxfcISP6RvlQVwDW-27">
          <mxGeometry relative="1" as="geometry" />
        </mxCell>
        <mxCell id="LA1AgxfcISP6RvlQVwDW-59" style="edgeStyle=orthogonalEdgeStyle;rounded=0;orthogonalLoop=1;jettySize=auto;html=1;entryX=1;entryY=0.5;entryDx=0;entryDy=0;" edge="1" parent="1" source="LA1AgxfcISP6RvlQVwDW-27" target="LA1AgxfcISP6RvlQVwDW-20">
          <mxGeometry relative="1" as="geometry" />
        </mxCell>
        <mxCell id="LA1AgxfcISP6RvlQVwDW-60" style="edgeStyle=orthogonalEdgeStyle;rounded=0;orthogonalLoop=1;jettySize=auto;html=1;entryX=0;entryY=0.5;entryDx=0;entryDy=0;jumpStyle=arc;startArrow=classic;startFill=1;" edge="1" parent="1" source="LA1AgxfcISP6RvlQVwDW-6" target="LA1AgxfcISP6RvlQVwDW-34">
          <mxGeometry relative="1" as="geometry" />
        </mxCell>
        <mxCell id="LA1AgxfcISP6RvlQVwDW-62" style="edgeStyle=orthogonalEdgeStyle;rounded=0;orthogonalLoop=1;jettySize=auto;html=1;startArrow=classic;startFill=1;" edge="1" parent="1" source="LA1AgxfcISP6RvlQVwDW-8" target="LA1AgxfcISP6RvlQVwDW-36">
          <mxGeometry relative="1" as="geometry">
            <mxPoint x="400" y="341" as="targetPoint" />
          </mxGeometry>
        </mxCell>
        <mxCell id="LA1AgxfcISP6RvlQVwDW-63" style="edgeStyle=orthogonalEdgeStyle;rounded=0;orthogonalLoop=1;jettySize=auto;html=1;startArrow=classic;startFill=1;" edge="1" parent="1" source="LA1AgxfcISP6RvlQVwDW-7" target="LA1AgxfcISP6RvlQVwDW-35">
          <mxGeometry relative="1" as="geometry" />
        </mxCell>
      </root>
    </mxGraphModel>
  </diagram>
</mxfile>
